<svg xmlns="http://www.w3.org/2000/svg" width="22" height="19" viewBox="0 0 22 19">
  <path fill="#8C929A" d="M21.7019064,8.39554566 L13.4679883,0.270824053 C12.8916569,-0.297864143 11.9062027,0.104902004 11.9062027,0.909164811 L11.9062027,4.52428508 C6.66604288,4.73920935 2.04402729,8.25987973 0.579247563,13.2703363 C0.0901013645,14.9428441 -0.0319493177,16.319265 0.0066042885,17.8007149 C0.0114502924,17.9746347 0.0126939571,18.0248218 0.0126939571,18.0613408 C0.0126939571,18.9786303 1.23830409,19.3112784 1.71376998,18.5230535 C2.73301754,16.8332383 3.89065497,15.5274432 5.1588499,14.562294 C7.45156725,12.8174677 9.83854581,12.3121693 11.9061598,12.5162183 L11.9061598,17.158608 C11.9061598,17.9628708 12.891614,18.365637 13.4679454,17.7969488 L21.7018635,9.67222717 C22.0591813,9.31969042 22.0591813,8.74808241 21.7019064,8.39554566 Z M13.7359337,14.9791938 L13.7359337,11.7421269 C13.7359337,11.3285702 13.4511345,10.9679087 13.0447563,10.8667728 C12.9334269,10.8390557 12.7485068,10.8027483 12.4976296,10.7681336 C9.90608967,10.4103497 6.8954347,10.960588 4.04139571,13.1325969 C3.33932554,13.666882 2.67074854,14.2877884 2.03918129,14.9989555 L2.05316179,14.9266793 C2.12610916,14.5560312 2.21951267,14.1732806 2.33723197,13.7708107 C3.64307992,9.30399109 7.91373879,6.22120935 12.6430097,6.3217951 C12.7229474,6.32319154 12.7524522,6.32382628 12.789462,6.32509577 C13.3067836,6.34269933 13.7358908,5.93367038 13.7358908,5.42287082 L13.7358908,3.08857906 L19.7611033,9.03388641 L13.7359337,14.9791938 Z"/>
</svg>
