<svg width="22px" height="21px" viewBox="0 0 22 21" version="1.1" xmlns="http://www.w3.org/2000/svg" xmlns:xlink="http://www.w3.org/1999/xlink">
   <g id="Navigation-Menu---Club" stroke="none" stroke-width="1" fill="none" fill-rule="evenodd">
       <g id="Events---list" transform="translate(-313.000000, -180.000000)" fill="#8C929A">
           <g id="002-print" transform="translate(313.000000, 180.000000)">
               <path d="M19.3568571,3.11465854 L17.9475476,3.11465854 L17.9475476,1.99346341 C17.9475476,0.985463415 17.1089286,0.165182927 16.0780714,0.165182927 L5.87085714,0.165182927 C4.8397381,0.165182927 4.00111905,0.985463415 4.00111905,1.99346341 L4.00111905,3.11465854 L2.59233333,3.11465854 C1.16285714,3.11465854 0,4.25147561 0,5.649 L0,13.9135244 C0,15.3113049 1.16285714,16.448378 2.59233333,16.448378 L4.00111905,16.448378 L4.00111905,18.9568537 C4.00111905,19.9651098 4.8397381,20.7851341 5.87085714,20.7851341 L16.0780714,20.7851341 C17.1089286,20.7851341 17.9475476,19.9651098 17.9475476,18.9568537 L17.9475476,16.448378 L19.3568571,16.448378 C20.7863333,16.448378 21.9491905,15.3113049 21.9491905,13.9135244 L21.9491905,5.6492561 C21.9491905,4.25173171 20.7863333,3.11465854 19.3568571,3.11465854 Z M5.57280952,1.99346341 C5.57280952,1.83263415 5.70664286,1.70176829 5.87111905,1.70176829 L16.0783333,1.70176829 C16.2425476,1.70176829 16.376381,1.83263415 16.376381,1.99346341 L16.376381,6.97481707 C16.376381,7.13539024 16.2425476,7.2662561 16.0783333,7.2662561 L5.87085714,7.2662561 C5.70638095,7.2662561 5.57254762,7.13564634 5.57254762,6.97481707 L5.57254762,1.99346341 L5.57280952,1.99346341 Z M16.376119,18.9571098 C16.376119,19.117939 16.2422857,19.2488049 16.0780714,19.2488049 L5.87085714,19.2488049 C5.70638095,19.2488049 5.57254762,19.117939 5.57254762,18.9571098 L5.57254762,14.3112439 C5.57254762,14.1504146 5.70638095,14.0195488 5.87085714,14.0195488 L16.0780714,14.0195488 C16.2422857,14.0195488 16.376119,14.1504146 16.376119,14.3112439 L16.376119,18.9571098 Z M20.3777619,13.9135244 C20.3777619,14.463878 19.9196905,14.9117927 19.3568571,14.9117927 L17.9475476,14.9117927 L17.9475476,14.3112439 C17.9475476,13.3029878 17.1089286,12.4829634 16.0780714,12.4829634 L5.87085714,12.4829634 C4.8397381,12.4829634 4.00111905,13.3029878 4.00111905,14.3112439 L4.00111905,14.9120488 L2.59233333,14.9120488 C2.0295,14.9120488 1.57142857,14.4641341 1.57142857,13.9137805 L1.57142857,5.6492561 C1.57142857,5.09915854 2.0295,4.6515 2.59233333,4.6515 L4.00111905,4.6515 L4.00111905,6.97507317 C4.00111905,7.98307317 4.8397381,8.80309756 5.87085714,8.80309756 L16.0780714,8.80309756 C17.1089286,8.80309756 17.9475476,7.98307317 17.9475476,6.97507317 L17.9475476,4.6512439 L19.3568571,4.6512439 C19.9196905,4.6512439 20.3777619,5.09890244 20.3777619,5.649 L20.3777619,13.9135244 Z" id="Shape" fill-rule="nonzero"></path>
               <rect id="Rectangle" x="6.94047619" y="14.8157561" width="8.08814286" height="1.53658537" rx="0.768292683"></rect>
               <rect id="Rectangle" x="6.94047619" y="17.0978415" width="8.08814286" height="1.53658537" rx="0.768292683"></rect>
           </g>
       </g>
   </g>
</svg>