<svg width="22px" height="22px" viewBox="0 0 22 22" version="1.1" xmlns="http://www.w3.org/2000/svg" xmlns:xlink="http://www.w3.org/1999/xlink">
   <g id="Navigation-Menu---Club" stroke="none" stroke-width="1" fill="none" fill-rule="evenodd">
       <g id="Members" transform="translate(-355.000000, -179.000000)" fill="#8C929A" fill-rule="nonzero">
           <g id="001-pencil" transform="translate(355.000000, 179.000000)">
               <path d="M19.8985743,5.73075356 L18.4468432,7.18248473 L14.8175153,3.54867617 L16.2692464,2.09694501 C16.5649695,1.801222 17.0802444,1.801222 17.3759674,2.09694501 L19.8985743,4.62403259 C20.2032587,4.9287169 20.2032587,5.42606925 19.8985743,5.73075356 Z M7.7694501,17.8733198 L4.1401222,14.2395112 L13.5226069,4.84358452 L17.1519348,8.47739308 L7.7694501,17.8733198 Z M3.30224033,15.991446 L6.01751527,18.7112016 L2.23584521,19.7775967 L3.30224033,15.991446 Z M21.1934827,3.32912424 L18.6708758,0.80203666 C18.1780041,0.309164969 16.3991853,-0.622810591 14.9788187,0.80203666 L2.19551935,13.5942974 C2.08350305,13.7063136 2.00285132,13.8407332 1.96252546,13.9930754 L0.0358452138,20.8529532 C-0.0537678208,21.1710794 0.0403258656,21.511609 0.268839104,21.7490835 C0.501832994,21.986558 0.967820774,22.0268839 1.16496945,21.9820774 L8.0203666,20.0509165 C8.17270876,20.0105906 8.30712831,19.9299389 8.4191446,19.8179226 L21.1934827,7.02566191 C22.2105906,6.00855397 22.2105906,4.35071283 21.1934827,3.32912424 Z" id="Shape"></path>
           </g>
       </g>
   </g>
</svg>