<svg width="18px" height="17px" viewBox="0 0 18 17" version="1.1" xmlns="http://www.w3.org/2000/svg" xmlns:xlink="http://www.w3.org/1999/xlink">
   <g id="Navigation-Menu---Club" stroke="none" stroke-width="1" fill="none" fill-rule="evenodd">
       <g id="Events---list" transform="translate(-115.000000, -182.000000)" fill="#FFFFFF">
           <g id="001-calendar" transform="translate(115.638870, 182.000000)">
               <circle id="Oval" cx="12.0625" cy="6.5625" r="1"></circle>
               <path d="M13.5,1.25 L12.6875,1.25 L12.6875,0.625 C12.6875,0.2798125 12.4076875,0 12.0625,0 C11.7173125,0 11.4375,0.2798125 11.4375,0.625 L11.4375,1.25 L8.59375,1.25 L8.59375,0.625 C8.59375,0.2798125 8.3139375,0 7.96875,0 C7.6235625,0 7.34375,0.2798125 7.34375,0.625 L7.34375,1.25 L4.53125,1.25 L4.53125,0.625 C4.53125,0.2798125 4.2514375,0 3.90625,0 C3.5610625,0 3.28125,0.2798125 3.28125,0.625 L3.28125,1.25 L2.5,1.25 C1.1215,1.25 0,2.3715 0,3.75 L0,13.5 C0,14.8785 1.1215,16 2.5,16 L7.28125,16 C7.6264375,16 7.90625,15.7201875 7.90625,15.375 C7.90625,15.0298125 7.6264375,14.75 7.28125,14.75 L2.5,14.75 C1.81075,14.75 1.25,14.18925 1.25,13.5 L1.25,3.75 C1.25,3.06075 1.81075,2.5 2.5,2.5 L3.28125,2.5 L3.28125,3.125 C3.28125,3.4701875 3.5610625,3.75 3.90625,3.75 C4.2514375,3.75 4.53125,3.4701875 4.53125,3.125 L4.53125,2.5 L7.34375,2.5 L7.34375,3.125 C7.34375,3.4701875 7.6235625,3.75 7.96875,3.75 C8.3139375,3.75 8.59375,3.4701875 8.59375,3.125 L8.59375,2.5 L11.4375,2.5 L11.4375,3.125 C11.4375,3.4701875 11.7173125,3.75 12.0625,3.75 C12.4076875,3.75 12.6875,3.4701875 12.6875,3.125 L12.6875,2.5 L13.5,2.5 C14.18925,2.5 14.75,3.06075 14.75,3.75 L14.75,7.3125 C14.75,7.6576875 15.0298125,7.9375 15.375,7.9375 C15.7201875,7.9375 16,7.6576875 16,7.3125 L16,3.75 C16,2.3715 14.8785,1.25 13.5,1.25 Z" id="Path"></path>
               <circle id="Oval" cx="9.34375" cy="6.5625" r="1"></circle>
               <circle id="Oval" cx="6.625" cy="9.28125" r="1"></circle>
               <circle id="Oval" cx="3.90625" cy="6.5625" r="1"></circle>
               <circle id="Oval" cx="3.90625" cy="9.28125" r="1"></circle>
               <circle id="Oval" cx="3.90625" cy="12" r="1"></circle>
               <circle id="Oval" cx="6.625" cy="12" r="1"></circle>
               <circle id="Oval" cx="6.625" cy="6.5625" r="1"></circle>
               <path d="M14.1553925,12.2450118 L16.6111305,12.2450118 C17.025344,12.2450118 17.3611305,12.5807982 17.3611305,12.9950118 C17.3611305,13.4092253 17.025344,13.7450118 16.6111305,13.7450118 L14.1553925,13.7450118 L14.1553925,16.25 C14.1553925,16.6642136 13.8196061,17 13.4053925,17 C12.991179,17 12.6553925,16.6642136 12.6553925,16.25 L12.6553925,13.7450118 L10.1111305,13.7450118 C9.69691691,13.7450118 9.36113047,13.4092253 9.36113047,12.9950118 C9.36113047,12.5807982 9.69691691,12.2450118 10.1111305,12.2450118 L12.6553925,12.2450118 L12.6553925,9.75 C12.6553925,9.33578644 12.991179,9 13.4053925,9 C13.8196061,9 14.1553925,9.33578644 14.1553925,9.75 L14.1553925,12.2450118 Z" id="Combined-Shape" fill-rule="nonzero"></path>
           </g>
       </g>
   </g>
</svg>